<svg id="Layer_1" enable-background="new 0 0 512 512" height="512" viewBox="0 0 512 512" width="512" xmlns="http://www.w3.org/2000/svg"><g><g><path d="m223 307.82v101.11c0 39.43-32.08 71.5-71.5 71.5h-89.1c-34.41 0-62.4-27.99-62.4-62.4 0-100.46 35.17-198.5 99.04-276.04 8.49-10.32 20.17-17.16 33.03-19.58 3.43-.65 6.95-.98 10.51-.98 31.11 0 56.42 25.31 56.42 56.42v61.31l14.76 29.53c6.05 12.09 9.24 25.62 9.24 39.13z" fill="#ffc69f"/><path d="m213.76 268.69c6.05 12.09 9.24 25.62 9.24 39.13v101.11c0 39.43-32.08 71.5-71.5 71.5h-21c39.42 0 71.5-32.07 71.5-71.5v-101.11c0-13.51-3.19-27.04-9.24-39.13l-14.76-29.53v-61.31c0-27.53-19.82-50.51-45.93-55.44 3.43-.65 6.95-.98 10.51-.98 31.11 0 56.42 25.31 56.42 56.42v61.31z" fill="#ffad76"/><g><g><path d="m139.716 367.024c-.49 1.61-1.14 3.15-1.92 4.61l17.62 17.62c2.93 2.93 2.93 7.68 0 10.6-1.47 1.47-3.38 2.2-5.3 2.2s-3.84-.73-5.31-2.2l-17.62-17.61c-1.46.78-3 1.42-4.61 1.91v13.62c0 4.14-3.36 7.5-7.5 7.5s-7.5-3.36-7.5-7.5v-13.62c-1.61-.49-3.15-1.13-4.61-1.91l-6.56 6.55c-1.46 1.46-3.38 2.2-5.3 2.2s-3.84-.74-5.3-2.2c-2.93-2.93-2.93-7.68 0-10.61l6.55-6.55c-.78-1.46-1.43-3-1.92-4.61h-13.61c-4.14 0-7.5-3.36-7.5-7.5 0-4.15 3.36-7.5 7.5-7.5h13.61c.49-1.61 1.14-3.16 1.92-4.62l-17.62-17.62c-2.93-2.93-2.93-7.68 0-10.6 2.93-2.93 7.68-2.93 10.61 0l17.62 17.62c1.46-.79 3-1.43 4.61-1.92v-13.62c0-4.14 3.36-7.5 7.5-7.5s7.5 3.36 7.5 7.5v13.62c1.61.49 3.15 1.13 4.61 1.92l6.56-6.56c2.93-2.93 7.68-2.93 10.6 0 2.93 2.93 2.93 7.68 0 10.61l-6.55 6.55c.78 1.46 1.43 3.01 1.92 4.62h13.61c4.14 0 7.5 3.35 7.5 7.5 0 4.14-3.36 7.5-7.5 7.5z" fill="#ff2261"/><path d="m139.716 367.024c-.49 1.61-1.14 3.15-1.92 4.61l17.62 17.62c2.93 2.93 2.93 7.68 0 10.6-1.47 1.47-3.38 2.2-5.3 2.2s-3.84-.73-5.31-2.2l-17.62-17.61c-1.46.78-3 1.42-4.61 1.91v13.62c0 4.14-3.36 7.5-7.5 7.5v-19.728c0-3.454 1.911-6.713 5.057-8.139 5.794-2.628 9.943-9.643 9.943-17.893 0-8.242-4.149-15.262-9.943-17.892-3.146-1.428-5.057-4.687-5.057-8.142v-19.716c4.14 0 7.5 3.36 7.5 7.5v13.62c1.61.49 3.15 1.13 4.61 1.92l6.56-6.56c2.93-2.93 7.68-2.93 10.6 0 2.93 2.93 2.93 7.68 0 10.61l-6.55 6.55c.78 1.46 1.43 3.01 1.92 4.62h13.357c3.813 0 7.212 2.739 7.691 6.522.58 4.576-2.976 8.478-7.438 8.478z" fill="#b7305d"/></g><g fill="#ff2261"><ellipse cx="49.908" cy="401.077" rx="7.495" ry="7.498"/><ellipse cx="46.039" cy="352.777" rx="7.495" ry="7.498"/><ellipse cx="83.048" cy="284.777" rx="7.495" ry="7.498"/><ellipse cx="177.048" cy="314.777" rx="7.495" ry="7.498"/><ellipse cx="183.044" cy="381.781" rx="7.495" ry="7.498"/><ellipse cx="85.633" cy="434.817" rx="7.495" ry="7.498"/><path d="m144.044 422.283c-4.14 0-7.495 3.357-7.495 7.498s3.356 7.498 7.495 7.498 7.495-3.357 7.495-7.498-3.356-7.498-7.495-7.498z"/></g></g></g><g><path d="m512 418.03c0 34.41-27.99 62.4-62.4 62.4h-89.1c-39.42 0-71.5-32.07-71.5-71.5v-101.11c0-13.51 3.19-27.04 9.24-39.13l14.76-29.53v-61.31c0-27.18 19.32-49.93 44.94-55.24 3.71-.78 7.55-1.18 11.48-1.18 16.91 0 32.79 7.49 43.54 20.55 63.87 77.55 99.04 175.59 99.04 276.05z" fill="#ffc69f"/><path d="m412.96 141.98c63.87 77.55 99.04 175.59 99.04 276.05 0 34.41-27.99 62.4-62.4 62.4h-23c34.41 0 62.4-27.99 62.4-62.4 0-100.46-35.17-198.5-99.04-276.05-8.26-10.04-19.56-16.79-32.02-19.37 3.71-.78 7.55-1.18 11.48-1.18 16.91 0 32.79 7.49 43.54 20.55z" fill="#ffad76"/><g><g><path d="m442.613 360.002c0 4.14-3.36 7.5-7.5 7.5h-13.61c-.49 1.61-1.14 3.15-1.92 4.61l6.55 6.55c2.93 2.93 2.93 7.68 0 10.61-1.46 1.46-3.38 2.2-5.3 2.2s-3.84-.74-5.3-2.2l-6.56-6.55c-1.46.78-3 1.42-4.61 1.91v13.62c0 4.14-3.36 7.5-7.5 7.5s-7.5-3.36-7.5-7.5v-13.62c-1.61-.49-3.15-1.13-4.61-1.91l-17.62 17.61c-1.47 1.47-3.39 2.2-5.31 2.2s-3.84-.73-5.3-2.2c-2.93-2.92-2.93-7.67 0-10.6l17.62-17.62c-.78-1.46-1.43-3-1.92-4.61h-13.61c-4.14 0-7.5-3.36-7.5-7.5 0-4.15 3.36-7.5 7.5-7.5h13.61c.49-1.61 1.14-3.16 1.92-4.62l-6.55-6.55c-2.93-2.93-2.93-7.68 0-10.61 2.92-2.93 7.67-2.93 10.6 0l6.56 6.56c1.46-.79 3-1.43 4.61-1.92v-13.62c0-4.14 3.36-7.5 7.5-7.5s7.5 3.36 7.5 7.5v13.62c1.61.49 3.15 1.13 4.61 1.92l17.62-17.62c2.93-2.93 7.68-2.93 10.61 0 2.93 2.92 2.93 7.67 0 10.6l-17.62 17.62c.78 1.46 1.43 3.01 1.92 4.62h13.61c4.14 0 7.5 3.35 7.5 7.5z" fill="#ff2261"/><path d="m442.61 360.214c-.113 4.111-3.695 7.288-7.808 7.288h-13.299c-.49 1.61-1.14 3.15-1.92 4.61l6.322 6.322c2.973 2.973 3.155 8.019.127 10.936-1.447 1.395-3.323 2.101-5.199 2.101-1.92 0-3.84-.74-5.3-2.2l-6.56-6.55c-1.46.78-3 1.42-4.61 1.91v13.62c0 4.14-3.36 7.5-7.5 7.5v-17.704c0-4.042 2.318-7.653 5.881-9.563 5.593-2.999 9.529-10.147 9.529-18.492 0-8.34-3.938-15.493-9.532-18.493-3.561-1.91-5.878-5.521-5.878-9.562v-17.696c4.14 0 7.5 3.36 7.5 7.5v13.62c1.61.49 3.15 1.13 4.61 1.92l17.62-17.62c2.93-2.93 7.68-2.93 10.61 0 2.93 2.92 2.93 7.67 0 10.6l-17.62 17.62c.78 1.46 1.43 3.01 1.92 4.62h13.61c4.21.001 7.614 3.466 7.497 7.713z" fill="#b7305d"/></g><g fill="#ff2261"><ellipse cx="462.031" cy="401.555" rx="7.495" ry="7.498"/><ellipse cx="465.9" cy="353.255" rx="7.495" ry="7.498"/><ellipse cx="428.891" cy="285.255" rx="7.495" ry="7.498"/><ellipse cx="334.891" cy="315.255" rx="7.495" ry="7.498"/><ellipse cx="328.895" cy="382.259" rx="7.495" ry="7.498"/><ellipse cx="426.305" cy="435.295" rx="7.495" ry="7.498"/><path d="m367.895 422.761c4.14 0 7.495 3.357 7.495 7.498s-3.356 7.498-7.495 7.498-7.495-3.357-7.495-7.498 3.355-7.498 7.495-7.498z"/></g></g></g><path d="m398.35 267.64c1.54 3.84-.33 8.21-4.18 9.74l-27.85 11.14c-.9.35-1.84.53-2.79.53-1 0-2.01-.2-2.95-.61-1.83-.78-3.27-2.26-4.01-4.11l-14.35-35.9h-172.52l-14.35 35.9c-.73 1.85-2.18 3.33-4 4.11-1.83.79-3.9.81-5.74.08l-27.86-11.14c-3.85-1.53-5.72-5.9-4.18-9.74l16.68-41.75-16.64-41.66c-1.54-3.84.33-8.21 4.18-9.74l27.86-11.14c1.84-.73 3.91-.71 5.74.08 1.82.78 3.27 2.26 4 4.11l14.35 35.89h63.22v-164.36c0-4.15 3.36-7.5 7.5-7.5h30c4.14 0 7.5 3.35 7.5 7.5v164.36h64.3l14.35-35.89c.73-1.85 2.18-3.33 4-4.11 1.83-.79 3.9-.81 5.74-.08l27.86 11.14c3.85 1.53 5.72 5.9 4.18 9.74l-16.68 41.75z" fill="#ffeac5"/><path d="m277.96 39.07v164.36h-18v-164.36c0-4.15-3.36-7.5-7.5-7.5h18c4.14 0 7.5 3.35 7.5 7.5z" fill="#ffc69f"/></g></svg>